<svg xmlns="http://www.w3.org/2000/svg" width="14.317" height="14.321" viewBox="0 0 14.317 14.321">
  <path id="Path_54" data-name="Path 54" d="M-90.621-1195.367H-91.4c-.2-.022-.407-.041-.609-.069a7,7,0,0,1-2.833-1.036.287.287,0,0,0-.271-.037c-.818.267-1.637.526-2.456.789l-.154.047c.286-.851.561-1.675.841-2.5a.289.289,0,0,0-.038-.294,6.9,6.9,0,0,1-1.164-2.827c-.051-.3-.076-.6-.112-.9v-.755c.009-.05.018-.1.026-.149.046-.313.073-.63.14-.938a6.945,6.945,0,0,1,2.686-4.2,6.947,6.947,0,0,1,5.811-1.285,6.913,6.913,0,0,1,4.17,2.639,6.965,6.965,0,0,1,1.448,5.071,6.919,6.919,0,0,1-1.737,3.992,7.027,7.027,0,0,1-4.15,2.339C-90.077-1195.43-90.35-1195.4-90.621-1195.367Zm1.888-3.125a4.774,4.774,0,0,0,.622-.123,1.693,1.693,0,0,0,1.385-1.771.3.3,0,0,0-.186-.311c-.529-.252-1.055-.511-1.586-.759a.432.432,0,0,0-.627.168c-.139.187-.275.376-.418.559a.486.486,0,0,1-.692.181,5.643,5.643,0,0,1-2.7-2.353c-.16-.259-.152-.336.053-.567.13-.146.265-.289.386-.442a.476.476,0,0,0,.138-.5c-.247-.592-.5-1.184-.753-1.772a.329.329,0,0,0-.179-.179,1.188,1.188,0,0,0-1.082.141,2.222,2.222,0,0,0-.784,2.2,4.014,4.014,0,0,0,.727,1.646,11.187,11.187,0,0,0,1.932,2.2,7.544,7.544,0,0,0,2.841,1.473C-89.349-1198.607-89.026-1198.556-88.734-1198.492Z" transform="translate(98.2 1209.688)" fill="#39d554"/>
</svg>
