<svg xmlns="http://www.w3.org/2000/svg" width="79" height="79" viewBox="0 0 79 79">
  <g id="Group_78" data-name="Group 78" transform="translate(0 0.493)">
    <rect id="Rectangle_24" data-name="Rectangle 24" width="79" height="79" rx="18" transform="translate(0 -0.493)" fill="#00da5d"/>
    <path id="Path_68" data-name="Path 68" d="M33.12,13.733,19.969.581a2,2,0,0,0-2.819,0L15.956,1.776a1.978,1.978,0,0,0-.582,1.409,2.017,2.017,0,0,0,.582,1.426L23.628,12.3H1.967A1.945,1.945,0,0,0,0,14.26v1.688a2.02,2.02,0,0,0,1.967,2.046H23.715l-7.759,7.732a1.974,1.974,0,0,0,0,2.8l1.194,1.19a2,2,0,0,0,2.819,0L33.12,16.562a2.01,2.01,0,0,0,0-2.829Z" transform="translate(26 55.243) rotate(-90)" fill="#fff"/>
  </g>
</svg>
